# xmcd
#
# Track frame offsets:
#	150
#	8760
#	23083
#	37311
#	50462
#	64143
#	76961
#	94988
#	104936
#	114716
#	135642
#	145701
#	161548
#	178517
#
# Disc length: 2576 seconds
#
# Revision: 1
# Processed by: cddbd v1.5.2PL0 Copyright (c) Steve Scherf et al.
# Submitted via: audiograbber 1.83.01
#
DISCID=c10a0e0e
DTITLE=Rye Holler Boys - Back To The Holler
DYEAR=2013
DGENRE=Bluegrass
TTITLE0=Single Train
TTITLE1=Sawmill Road
TTITLE2=Crazy Heart
TTITLE3=Sweet By And By
TTITLE4=Take Me Down The Line
TTITLE5=Wild Ashley
TTITLE6=The Love Of God
TTITLE7=Think Of What You've Done
TTITLE8=Dooley
TTITLE9=Back To The Holler
TTITLE10=Girl Of Mine In Tennessee
TTITLE11=I Heard A Sweet Voice
TTITLE12=Can't You See
TTITLE13=Hard TimesTrack 14
EXTD=
EXTT0=
EXTT1=
EXTT2=
EXTT3=
EXTT4=
EXTT5=
EXTT6=
EXTT7=
EXTT8=
EXTT9=
EXTT10=
EXTT11=
EXTT12=
EXTT13=
PLAYORDER=
